<svg width="30" height="30" viewBox="0 0 30 30" fill="none" xmlns="http://www.w3.org/2000/svg">
<g clip-path="url(#clip0_845_733)">
<path d="M19.5191 6.45688C17.5041 4.4419 15.5706 2.51851 15.0007 0.340698C14.4308 2.50833 12.4972 4.43172 10.4822 6.45688C7.44956 9.47936 4.02002 12.9089 4.02002 18.0583C4.02002 24.1236 8.93536 29.0389 15.0007 29.0389C21.066 29.0389 25.9813 24.1236 25.9813 18.0583C25.9813 12.9089 22.5416 9.47936 19.5191 6.45688ZM8.68094 20.6126C8.00928 20.5923 5.52617 16.3079 10.1362 11.7488L13.1892 15.0765C13.291 15.1783 13.291 15.3411 13.1892 15.4429C13.179 15.4531 13.179 15.4531 13.1689 15.4632C12.4361 16.2061 9.34242 19.3202 8.95571 20.3989C8.8743 20.6228 8.75217 20.6126 8.68094 20.6126ZM15.0007 26.2607C12.9144 26.2607 11.2251 24.5714 11.2251 22.4852C11.2251 21.5285 11.6016 20.6737 12.1614 19.9919C12.8432 19.1574 15.0007 16.8167 15.0007 16.8167C15.0007 16.8167 17.1174 19.1981 17.8298 19.9817C18.4505 20.6635 18.7864 21.5591 18.7762 22.4852C18.7762 24.5714 17.0869 26.2607 15.0007 26.2607ZM22.2261 20.1343C22.1447 20.3073 21.9615 20.6126 21.7071 20.6228C21.2593 20.6432 21.2186 20.4091 20.8828 19.9206C20.1602 18.8521 13.871 12.2779 12.6906 11.0059C11.6525 9.88642 12.5481 9.10282 12.9551 8.68557C13.4742 8.16656 14.9803 6.66042 14.9803 6.66042C14.9803 6.66042 19.4886 10.9346 21.3611 13.8553C23.2336 16.776 22.6026 19.2999 22.2261 20.1343Z" fill="white"/>
</g>
<defs>
<clipPath id="clip0_845_733">
<rect width="28.8" height="28.8" fill="white" transform="translate(0.600098 0.299988)"/>
</clipPath>
</defs>
</svg>
