<svg xmlns="http://www.w3.org/2000/svg" width="22" height="30" fill="none"><path fill="#fff" d="M15.519 6.457C13.504 4.442 11.57 2.519 11 .34c-.57 2.167-2.503 4.09-4.518 6.116C3.449 9.479.02 12.909.02 18.058c0 6.066 4.915 10.98 10.98 10.98 6.066 0 10.98-4.914 10.98-10.98 0-5.15-3.439-8.579-6.461-11.601ZM4.68 20.613c-.671-.02-3.154-4.305 1.456-8.864l3.053 3.327a.258.258 0 0 1 0 .367l-.02.02c-.733.743-3.827 3.857-4.214 4.936-.081.224-.203.214-.275.214ZM11 26.26a3.774 3.774 0 0 1-3.775-3.776c0-.956.376-1.811.936-2.493.682-.835 2.84-3.175 2.84-3.175s2.116 2.381 2.828 3.165c.621.681.957 1.577.947 2.503A3.774 3.774 0 0 1 11 26.261Zm7.226-6.127c-.082.173-.265.479-.52.489-.447.02-.488-.214-.824-.702-.722-1.069-7.011-7.643-8.192-8.915-1.038-1.12-.142-1.903.265-2.32L10.98 6.66s4.508 4.275 6.38 7.195c1.873 2.921 1.242 5.445.866 6.28Z"/></svg>
